<mxfile host="app.diagrams.net" modified="2023-03-11T17:40:20.014Z" agent="5.0 (Windows NT 10.0; Win64; x64) AppleWebKit/537.36 (KHTML, like Gecko) Chrome/110.0.0.0 Safari/537.36 Edg/110.0.1587.63" etag="9KRojspqY_fU7Ko7Gigd" version="21.0.6" type="github">
  <diagram id="C5RBs43oDa-KdzZeNtuy" name="BarbershopPro">
    <mxGraphModel dx="1500" dy="830" grid="1" gridSize="10" guides="1" tooltips="1" connect="1" arrows="1" fold="1" page="1" pageScale="1" pageWidth="1654" pageHeight="1169" math="0" shadow="0">
      <root>
        <mxCell id="WIyWlLk6GJQsqaUBKTNV-0" />
        <mxCell id="WIyWlLk6GJQsqaUBKTNV-1" parent="WIyWlLk6GJQsqaUBKTNV-0" />
        <mxCell id="LqBX9_z1AEjyvqA8qfm_-3" style="edgeStyle=orthogonalEdgeStyle;rounded=0;orthogonalLoop=1;jettySize=auto;html=1;" parent="WIyWlLk6GJQsqaUBKTNV-1" source="WIyWlLk6GJQsqaUBKTNV-3" target="LqBX9_z1AEjyvqA8qfm_-1" edge="1">
          <mxGeometry relative="1" as="geometry">
            <Array as="points">
              <mxPoint x="708" y="203" />
              <mxPoint x="708" y="203" />
            </Array>
          </mxGeometry>
        </mxCell>
        <mxCell id="WIyWlLk6GJQsqaUBKTNV-3" value="Client" style="rounded=1;whiteSpace=wrap;html=1;fontSize=12;glass=0;strokeWidth=1;shadow=1;fillColor=#d5e8d4;strokeColor=#82b366;" parent="WIyWlLk6GJQsqaUBKTNV-1" vertex="1">
          <mxGeometry x="638" y="123" width="170" height="70" as="geometry" />
        </mxCell>
        <mxCell id="LqBX9_z1AEjyvqA8qfm_-36" style="edgeStyle=orthogonalEdgeStyle;rounded=0;orthogonalLoop=1;jettySize=auto;html=1;entryX=1;entryY=0.5;entryDx=0;entryDy=0;dashed=1;" parent="WIyWlLk6GJQsqaUBKTNV-1" source="LqBX9_z1AEjyvqA8qfm_-0" target="LqBX9_z1AEjyvqA8qfm_-10" edge="1">
          <mxGeometry relative="1" as="geometry">
            <Array as="points">
              <mxPoint x="858" y="393" />
              <mxPoint x="858" y="508" />
            </Array>
          </mxGeometry>
        </mxCell>
        <mxCell id="LqBX9_z1AEjyvqA8qfm_-41" style="edgeStyle=orthogonalEdgeStyle;rounded=0;orthogonalLoop=1;jettySize=auto;html=1;entryX=1;entryY=0.5;entryDx=0;entryDy=0;" parent="WIyWlLk6GJQsqaUBKTNV-1" source="LqBX9_z1AEjyvqA8qfm_-0" target="LqBX9_z1AEjyvqA8qfm_-40" edge="1">
          <mxGeometry relative="1" as="geometry">
            <Array as="points">
              <mxPoint x="1118" y="273" />
            </Array>
          </mxGeometry>
        </mxCell>
        <mxCell id="LqBX9_z1AEjyvqA8qfm_-43" style="edgeStyle=orthogonalEdgeStyle;rounded=0;orthogonalLoop=1;jettySize=auto;html=1;entryX=0.5;entryY=1;entryDx=0;entryDy=0;" parent="WIyWlLk6GJQsqaUBKTNV-1" source="LqBX9_z1AEjyvqA8qfm_-0" target="LqBX9_z1AEjyvqA8qfm_-42" edge="1">
          <mxGeometry relative="1" as="geometry">
            <Array as="points">
              <mxPoint x="1158" y="333" />
              <mxPoint x="1178" y="333" />
            </Array>
          </mxGeometry>
        </mxCell>
        <mxCell id="LqBX9_z1AEjyvqA8qfm_-68" style="edgeStyle=orthogonalEdgeStyle;rounded=0;orthogonalLoop=1;jettySize=auto;html=1;entryX=0;entryY=0.5;entryDx=0;entryDy=0;" parent="WIyWlLk6GJQsqaUBKTNV-1" source="LqBX9_z1AEjyvqA8qfm_-0" target="LqBX9_z1AEjyvqA8qfm_-45" edge="1">
          <mxGeometry relative="1" as="geometry" />
        </mxCell>
        <mxCell id="LqBX9_z1AEjyvqA8qfm_-71" style="edgeStyle=orthogonalEdgeStyle;rounded=0;orthogonalLoop=1;jettySize=auto;html=1;entryX=0.5;entryY=0;entryDx=0;entryDy=0;" parent="WIyWlLk6GJQsqaUBKTNV-1" source="LqBX9_z1AEjyvqA8qfm_-0" target="LqBX9_z1AEjyvqA8qfm_-69" edge="1">
          <mxGeometry relative="1" as="geometry">
            <Array as="points">
              <mxPoint x="1148" y="489" />
              <mxPoint x="1208" y="489" />
            </Array>
          </mxGeometry>
        </mxCell>
        <mxCell id="LqBX9_z1AEjyvqA8qfm_-0" value="Master" style="rounded=1;whiteSpace=wrap;html=1;fillColor=#dae8fc;strokeColor=#6c8ebf;shadow=1;" parent="WIyWlLk6GJQsqaUBKTNV-1" vertex="1">
          <mxGeometry x="1038" y="353" width="160" height="70" as="geometry" />
        </mxCell>
        <mxCell id="LqBX9_z1AEjyvqA8qfm_-5" style="edgeStyle=orthogonalEdgeStyle;rounded=0;orthogonalLoop=1;jettySize=auto;html=1;" parent="WIyWlLk6GJQsqaUBKTNV-1" source="LqBX9_z1AEjyvqA8qfm_-1" target="LqBX9_z1AEjyvqA8qfm_-4" edge="1">
          <mxGeometry relative="1" as="geometry" />
        </mxCell>
        <mxCell id="LqBX9_z1AEjyvqA8qfm_-1" value="Information review" style="rounded=1;whiteSpace=wrap;html=1;" parent="WIyWlLk6GJQsqaUBKTNV-1" vertex="1">
          <mxGeometry x="648" y="243" width="120" height="60" as="geometry" />
        </mxCell>
        <mxCell id="LqBX9_z1AEjyvqA8qfm_-6" style="edgeStyle=orthogonalEdgeStyle;rounded=0;orthogonalLoop=1;jettySize=auto;html=1;entryX=0;entryY=0.5;entryDx=0;entryDy=0;dashed=1;" parent="WIyWlLk6GJQsqaUBKTNV-1" source="LqBX9_z1AEjyvqA8qfm_-4" target="LqBX9_z1AEjyvqA8qfm_-1" edge="1">
          <mxGeometry relative="1" as="geometry">
            <mxPoint x="558" y="283" as="targetPoint" />
            <Array as="points">
              <mxPoint x="598" y="383" />
              <mxPoint x="598" y="273" />
            </Array>
          </mxGeometry>
        </mxCell>
        <mxCell id="LqBX9_z1AEjyvqA8qfm_-77" value="&amp;nbsp;Fail&amp;nbsp;" style="edgeLabel;html=1;align=center;verticalAlign=middle;resizable=0;points=[];" parent="LqBX9_z1AEjyvqA8qfm_-6" vertex="1" connectable="0">
          <mxGeometry x="-0.6828" relative="1" as="geometry">
            <mxPoint as="offset" />
          </mxGeometry>
        </mxCell>
        <mxCell id="LqBX9_z1AEjyvqA8qfm_-11" style="edgeStyle=orthogonalEdgeStyle;rounded=0;orthogonalLoop=1;jettySize=auto;html=1;entryX=0.5;entryY=0;entryDx=0;entryDy=0;" parent="WIyWlLk6GJQsqaUBKTNV-1" source="LqBX9_z1AEjyvqA8qfm_-4" target="LqBX9_z1AEjyvqA8qfm_-10" edge="1">
          <mxGeometry relative="1" as="geometry" />
        </mxCell>
        <mxCell id="LqBX9_z1AEjyvqA8qfm_-76" value="Successful" style="edgeLabel;html=1;align=center;verticalAlign=middle;resizable=0;points=[];" parent="LqBX9_z1AEjyvqA8qfm_-11" vertex="1" connectable="0">
          <mxGeometry x="-0.2552" relative="1" as="geometry">
            <mxPoint as="offset" />
          </mxGeometry>
        </mxCell>
        <mxCell id="LqBX9_z1AEjyvqA8qfm_-4" value="Registration into system" style="rounded=1;whiteSpace=wrap;html=1;" parent="WIyWlLk6GJQsqaUBKTNV-1" vertex="1">
          <mxGeometry x="648" y="353" width="120" height="60" as="geometry" />
        </mxCell>
        <mxCell id="LqBX9_z1AEjyvqA8qfm_-14" style="edgeStyle=orthogonalEdgeStyle;rounded=0;orthogonalLoop=1;jettySize=auto;html=1;entryX=0.5;entryY=0;entryDx=0;entryDy=0;" parent="WIyWlLk6GJQsqaUBKTNV-1" source="LqBX9_z1AEjyvqA8qfm_-10" target="LqBX9_z1AEjyvqA8qfm_-13" edge="1">
          <mxGeometry relative="1" as="geometry" />
        </mxCell>
        <mxCell id="LqBX9_z1AEjyvqA8qfm_-10" value="Choose master, date and time, service(or the list&amp;lt;service&amp;gt;)" style="rounded=1;whiteSpace=wrap;html=1;" parent="WIyWlLk6GJQsqaUBKTNV-1" vertex="1">
          <mxGeometry x="628" y="463" width="160" height="90" as="geometry" />
        </mxCell>
        <mxCell id="LqBX9_z1AEjyvqA8qfm_-38" style="edgeStyle=orthogonalEdgeStyle;rounded=0;orthogonalLoop=1;jettySize=auto;html=1;entryX=1;entryY=0.75;entryDx=0;entryDy=0;" parent="WIyWlLk6GJQsqaUBKTNV-1" source="LqBX9_z1AEjyvqA8qfm_-13" target="LqBX9_z1AEjyvqA8qfm_-1" edge="1">
          <mxGeometry relative="1" as="geometry">
            <Array as="points">
              <mxPoint x="818" y="648" />
              <mxPoint x="818" y="288" />
            </Array>
          </mxGeometry>
        </mxCell>
        <mxCell id="LqBX9_z1AEjyvqA8qfm_-75" value="&amp;nbsp;if refuse&amp;nbsp;" style="edgeLabel;html=1;align=center;verticalAlign=middle;resizable=0;points=[];" parent="LqBX9_z1AEjyvqA8qfm_-38" vertex="1" connectable="0">
          <mxGeometry x="-0.5911" relative="1" as="geometry">
            <mxPoint as="offset" />
          </mxGeometry>
        </mxCell>
        <mxCell id="LqBX9_z1AEjyvqA8qfm_-49" style="edgeStyle=orthogonalEdgeStyle;rounded=0;orthogonalLoop=1;jettySize=auto;html=1;entryX=0.5;entryY=0;entryDx=0;entryDy=0;entryPerimeter=0;" parent="WIyWlLk6GJQsqaUBKTNV-1" source="LqBX9_z1AEjyvqA8qfm_-13" target="LqBX9_z1AEjyvqA8qfm_-48" edge="1">
          <mxGeometry relative="1" as="geometry" />
        </mxCell>
        <mxCell id="LqBX9_z1AEjyvqA8qfm_-13" value="Sees info and makes the decision" style="rounded=1;whiteSpace=wrap;html=1;glass=0;shadow=0;" parent="WIyWlLk6GJQsqaUBKTNV-1" vertex="1">
          <mxGeometry x="628" y="603" width="160" height="90" as="geometry" />
        </mxCell>
        <mxCell id="LqBX9_z1AEjyvqA8qfm_-16" style="edgeStyle=orthogonalEdgeStyle;rounded=0;orthogonalLoop=1;jettySize=auto;html=1;dashed=1;dashPattern=8 8;" parent="WIyWlLk6GJQsqaUBKTNV-1" source="LqBX9_z1AEjyvqA8qfm_-15" target="LqBX9_z1AEjyvqA8qfm_-0" edge="1">
          <mxGeometry relative="1" as="geometry">
            <Array as="points">
              <mxPoint x="1098" y="533" />
            </Array>
          </mxGeometry>
        </mxCell>
        <mxCell id="LqBX9_z1AEjyvqA8qfm_-15" value="Recieves new order notification" style="rounded=1;whiteSpace=wrap;html=1;fillColor=#f5f5f5;fontColor=#333333;strokeColor=#666666;" parent="WIyWlLk6GJQsqaUBKTNV-1" vertex="1">
          <mxGeometry x="898" y="503" width="120" height="60" as="geometry" />
        </mxCell>
        <mxCell id="LqBX9_z1AEjyvqA8qfm_-23" style="edgeStyle=orthogonalEdgeStyle;rounded=0;orthogonalLoop=1;jettySize=auto;html=1;entryX=0;entryY=0.5;entryDx=0;entryDy=0;dashed=1;dashPattern=12 12;" parent="WIyWlLk6GJQsqaUBKTNV-1" source="LqBX9_z1AEjyvqA8qfm_-21" target="WIyWlLk6GJQsqaUBKTNV-3" edge="1">
          <mxGeometry relative="1" as="geometry">
            <Array as="points">
              <mxPoint x="318" y="158" />
            </Array>
          </mxGeometry>
        </mxCell>
        <mxCell id="LqBX9_z1AEjyvqA8qfm_-21" value="An hour before receives a reminder message, which contains general order information" style="rounded=1;whiteSpace=wrap;html=1;fillColor=#f5f5f5;fontColor=#333333;strokeColor=#666666;" parent="WIyWlLk6GJQsqaUBKTNV-1" vertex="1">
          <mxGeometry x="238" y="523" width="160" height="90" as="geometry" />
        </mxCell>
        <mxCell id="LqBX9_z1AEjyvqA8qfm_-37" style="edgeStyle=orthogonalEdgeStyle;rounded=0;orthogonalLoop=1;jettySize=auto;html=1;entryX=0;entryY=0.75;entryDx=0;entryDy=0;dashed=1;" parent="WIyWlLk6GJQsqaUBKTNV-1" source="LqBX9_z1AEjyvqA8qfm_-35" target="LqBX9_z1AEjyvqA8qfm_-10" edge="1">
          <mxGeometry relative="1" as="geometry" />
        </mxCell>
        <mxCell id="LqBX9_z1AEjyvqA8qfm_-35" value="Service" style="rounded=1;whiteSpace=wrap;html=1;fontSize=12;glass=0;strokeWidth=1;shadow=1;fillColor=#fff2cc;strokeColor=#d6b656;" parent="WIyWlLk6GJQsqaUBKTNV-1" vertex="1">
          <mxGeometry x="368" y="353" width="140" height="70" as="geometry" />
        </mxCell>
        <mxCell id="LqBX9_z1AEjyvqA8qfm_-40" value="Determines the days and hours of work" style="rounded=1;whiteSpace=wrap;html=1;" parent="WIyWlLk6GJQsqaUBKTNV-1" vertex="1">
          <mxGeometry x="928" y="243" width="120" height="60" as="geometry" />
        </mxCell>
        <mxCell id="LqBX9_z1AEjyvqA8qfm_-42" value="Views the schedule" style="rounded=1;whiteSpace=wrap;html=1;" parent="WIyWlLk6GJQsqaUBKTNV-1" vertex="1">
          <mxGeometry x="1118" y="173" width="120" height="60" as="geometry" />
        </mxCell>
        <mxCell id="LqBX9_z1AEjyvqA8qfm_-45" value="Indicates the client&#39;s failure to appear" style="rounded=1;whiteSpace=wrap;html=1;" parent="WIyWlLk6GJQsqaUBKTNV-1" vertex="1">
          <mxGeometry x="1288" y="333" width="120" height="60" as="geometry" />
        </mxCell>
        <mxCell id="LqBX9_z1AEjyvqA8qfm_-55" style="edgeStyle=orthogonalEdgeStyle;rounded=0;orthogonalLoop=1;jettySize=auto;html=1;entryX=1;entryY=0.5;entryDx=0;entryDy=0;" parent="WIyWlLk6GJQsqaUBKTNV-1" source="LqBX9_z1AEjyvqA8qfm_-46" target="LqBX9_z1AEjyvqA8qfm_-53" edge="1">
          <mxGeometry relative="1" as="geometry" />
        </mxCell>
        <mxCell id="LqBX9_z1AEjyvqA8qfm_-57" style="edgeStyle=orthogonalEdgeStyle;rounded=0;orthogonalLoop=1;jettySize=auto;html=1;" parent="WIyWlLk6GJQsqaUBKTNV-1" source="LqBX9_z1AEjyvqA8qfm_-46" target="LqBX9_z1AEjyvqA8qfm_-56" edge="1">
          <mxGeometry relative="1" as="geometry" />
        </mxCell>
        <mxCell id="LqBX9_z1AEjyvqA8qfm_-60" style="edgeStyle=orthogonalEdgeStyle;rounded=0;orthogonalLoop=1;jettySize=auto;html=1;" parent="WIyWlLk6GJQsqaUBKTNV-1" source="LqBX9_z1AEjyvqA8qfm_-46" edge="1">
          <mxGeometry relative="1" as="geometry">
            <mxPoint x="928" y="928" as="targetPoint" />
          </mxGeometry>
        </mxCell>
        <mxCell id="LqBX9_z1AEjyvqA8qfm_-46" value="In day to, can refuse, can move order to another day and time" style="rounded=1;whiteSpace=wrap;html=1;glass=0;shadow=0;" parent="WIyWlLk6GJQsqaUBKTNV-1" vertex="1">
          <mxGeometry x="628" y="883" width="160" height="90" as="geometry" />
        </mxCell>
        <mxCell id="LqBX9_z1AEjyvqA8qfm_-50" style="edgeStyle=orthogonalEdgeStyle;rounded=0;orthogonalLoop=1;jettySize=auto;html=1;entryX=0.5;entryY=1;entryDx=0;entryDy=0;" parent="WIyWlLk6GJQsqaUBKTNV-1" source="LqBX9_z1AEjyvqA8qfm_-48" target="LqBX9_z1AEjyvqA8qfm_-21" edge="1">
          <mxGeometry relative="1" as="geometry" />
        </mxCell>
        <mxCell id="LqBX9_z1AEjyvqA8qfm_-51" style="edgeStyle=orthogonalEdgeStyle;rounded=0;orthogonalLoop=1;jettySize=auto;html=1;entryX=0.5;entryY=1;entryDx=0;entryDy=0;dashed=1;dashPattern=8 8;" parent="WIyWlLk6GJQsqaUBKTNV-1" source="LqBX9_z1AEjyvqA8qfm_-48" target="LqBX9_z1AEjyvqA8qfm_-15" edge="1">
          <mxGeometry relative="1" as="geometry" />
        </mxCell>
        <mxCell id="LqBX9_z1AEjyvqA8qfm_-54" style="edgeStyle=orthogonalEdgeStyle;rounded=0;orthogonalLoop=1;jettySize=auto;html=1;entryX=0.5;entryY=0;entryDx=0;entryDy=0;" parent="WIyWlLk6GJQsqaUBKTNV-1" source="LqBX9_z1AEjyvqA8qfm_-48" target="LqBX9_z1AEjyvqA8qfm_-46" edge="1">
          <mxGeometry relative="1" as="geometry" />
        </mxCell>
        <mxCell id="LqBX9_z1AEjyvqA8qfm_-48" value="if confirms" style="strokeWidth=2;html=1;shape=mxgraph.flowchart.decision;whiteSpace=wrap;fillColor=#dae8fc;strokeColor=#6c8ebf;" parent="WIyWlLk6GJQsqaUBKTNV-1" vertex="1">
          <mxGeometry x="633" y="743" width="150" height="100" as="geometry" />
        </mxCell>
        <mxCell id="LqBX9_z1AEjyvqA8qfm_-53" value="Refuses queue" style="rounded=1;whiteSpace=wrap;html=1;glass=0;shadow=0;" parent="WIyWlLk6GJQsqaUBKTNV-1" vertex="1">
          <mxGeometry x="348" y="943" width="150" height="50" as="geometry" />
        </mxCell>
        <mxCell id="LqBX9_z1AEjyvqA8qfm_-59" style="edgeStyle=orthogonalEdgeStyle;rounded=0;orthogonalLoop=1;jettySize=auto;html=1;entryX=0;entryY=0.5;entryDx=0;entryDy=0;dashed=1;dashPattern=12 12;" parent="WIyWlLk6GJQsqaUBKTNV-1" source="LqBX9_z1AEjyvqA8qfm_-56" target="LqBX9_z1AEjyvqA8qfm_-10" edge="1">
          <mxGeometry relative="1" as="geometry">
            <Array as="points">
              <mxPoint x="438" y="508" />
            </Array>
          </mxGeometry>
        </mxCell>
        <mxCell id="LqBX9_z1AEjyvqA8qfm_-56" value="Moves queue to another time" style="rounded=1;whiteSpace=wrap;html=1;glass=0;shadow=0;" parent="WIyWlLk6GJQsqaUBKTNV-1" vertex="1">
          <mxGeometry x="348" y="863" width="150" height="50" as="geometry" />
        </mxCell>
        <mxCell id="LqBX9_z1AEjyvqA8qfm_-65" style="edgeStyle=orthogonalEdgeStyle;rounded=0;orthogonalLoop=1;jettySize=auto;html=1;entryX=0.5;entryY=1;entryDx=0;entryDy=0;entryPerimeter=0;" parent="WIyWlLk6GJQsqaUBKTNV-1" source="LqBX9_z1AEjyvqA8qfm_-63" target="LqBX9_z1AEjyvqA8qfm_-64" edge="1">
          <mxGeometry relative="1" as="geometry">
            <Array as="points">
              <mxPoint x="1103" y="928" />
            </Array>
          </mxGeometry>
        </mxCell>
        <mxCell id="LqBX9_z1AEjyvqA8qfm_-63" value="In date and time of client&#39;s queue" style="rounded=1;whiteSpace=wrap;html=1;" parent="WIyWlLk6GJQsqaUBKTNV-1" vertex="1">
          <mxGeometry x="928" y="898" width="120" height="60" as="geometry" />
        </mxCell>
        <mxCell id="LqBX9_z1AEjyvqA8qfm_-66" style="edgeStyle=orthogonalEdgeStyle;rounded=0;orthogonalLoop=1;jettySize=auto;html=1;" parent="WIyWlLk6GJQsqaUBKTNV-1" source="LqBX9_z1AEjyvqA8qfm_-64" target="LqBX9_z1AEjyvqA8qfm_-45" edge="1">
          <mxGeometry relative="1" as="geometry" />
        </mxCell>
        <mxCell id="LqBX9_z1AEjyvqA8qfm_-73" value="&amp;nbsp; has not arrive&amp;nbsp;&amp;nbsp;" style="edgeLabel;html=1;align=center;verticalAlign=middle;resizable=0;points=[];" parent="LqBX9_z1AEjyvqA8qfm_-66" vertex="1" connectable="0">
          <mxGeometry x="-0.6773" y="1" relative="1" as="geometry">
            <mxPoint as="offset" />
          </mxGeometry>
        </mxCell>
        <mxCell id="LqBX9_z1AEjyvqA8qfm_-70" style="edgeStyle=orthogonalEdgeStyle;rounded=0;orthogonalLoop=1;jettySize=auto;html=1;entryX=0;entryY=0.5;entryDx=0;entryDy=0;" parent="WIyWlLk6GJQsqaUBKTNV-1" source="LqBX9_z1AEjyvqA8qfm_-64" target="LqBX9_z1AEjyvqA8qfm_-69" edge="1">
          <mxGeometry relative="1" as="geometry">
            <Array as="points">
              <mxPoint x="1103" y="604" />
            </Array>
          </mxGeometry>
        </mxCell>
        <mxCell id="LqBX9_z1AEjyvqA8qfm_-74" value="arrives" style="edgeLabel;html=1;align=center;verticalAlign=middle;resizable=0;points=[];" parent="LqBX9_z1AEjyvqA8qfm_-70" vertex="1" connectable="0">
          <mxGeometry x="-0.4545" y="-1" relative="1" as="geometry">
            <mxPoint as="offset" />
          </mxGeometry>
        </mxCell>
        <mxCell id="LqBX9_z1AEjyvqA8qfm_-64" value="Client arrives?" style="strokeWidth=2;html=1;shape=mxgraph.flowchart.decision;whiteSpace=wrap;fillColor=#dae8fc;strokeColor=#6c8ebf;" parent="WIyWlLk6GJQsqaUBKTNV-1" vertex="1">
          <mxGeometry x="1028" y="763" width="150" height="100" as="geometry" />
        </mxCell>
        <mxCell id="LqBX9_z1AEjyvqA8qfm_-69" value="In the time indicates start of the services, can change list&amp;lt;service&amp;gt;. After executing services closes order" style="rounded=1;whiteSpace=wrap;html=1;fillColor=#fff2cc;strokeColor=#d6b656;" parent="WIyWlLk6GJQsqaUBKTNV-1" vertex="1">
          <mxGeometry x="1118" y="555" width="180" height="98" as="geometry" />
        </mxCell>
      </root>
    </mxGraphModel>
  </diagram>
</mxfile>
